<mxfile host="app.diagrams.net" agent="Mozilla/5.0 (Windows NT 10.0; Win64; x64) AppleWebKit/537.36 (KHTML, like Gecko) Chrome/131.0.0.0 Safari/537.36" version="26.0.5">
  <diagram name="페이지-1" id="tWDKkxithVRZUEmkQD-M">
    <mxGraphModel dx="1434" dy="796" grid="0" gridSize="10" guides="1" tooltips="1" connect="1" arrows="1" fold="1" page="1" pageScale="1" pageWidth="827" pageHeight="1169" math="0" shadow="0">
      <root>
        <mxCell id="0" />
        <mxCell id="1" parent="0" />
        <mxCell id="I0jLUqdHnTf_JmZDLa92-1" value="시작" style="ellipse;whiteSpace=wrap;html=1;" vertex="1" parent="1">
          <mxGeometry x="310" y="100" width="120" height="80" as="geometry" />
        </mxCell>
        <mxCell id="I0jLUqdHnTf_JmZDLa92-12" style="edgeStyle=orthogonalEdgeStyle;rounded=0;orthogonalLoop=1;jettySize=auto;html=1;exitX=0;exitY=0.5;exitDx=0;exitDy=0;entryX=0;entryY=0.5;entryDx=0;entryDy=0;" edge="1" parent="1" source="I0jLUqdHnTf_JmZDLa92-2" target="I0jLUqdHnTf_JmZDLa92-13">
          <mxGeometry relative="1" as="geometry">
            <mxPoint x="240" y="100" as="targetPoint" />
            <Array as="points">
              <mxPoint x="241" y="260" />
              <mxPoint x="241" y="690" />
            </Array>
          </mxGeometry>
        </mxCell>
        <mxCell id="I0jLUqdHnTf_JmZDLa92-21" value="NO" style="edgeLabel;html=1;align=center;verticalAlign=middle;resizable=0;points=[];" vertex="1" connectable="0" parent="I0jLUqdHnTf_JmZDLa92-12">
          <mxGeometry x="-0.8638" y="-5" relative="1" as="geometry">
            <mxPoint as="offset" />
          </mxGeometry>
        </mxCell>
        <mxCell id="I0jLUqdHnTf_JmZDLa92-2" value="CAN DATA 수신" style="rhombus;whiteSpace=wrap;html=1;" vertex="1" parent="1">
          <mxGeometry x="292.5" y="220" width="155" height="80" as="geometry" />
        </mxCell>
        <mxCell id="I0jLUqdHnTf_JmZDLa92-4" value="원격 프레임" style="rhombus;whiteSpace=wrap;html=1;" vertex="1" parent="1">
          <mxGeometry x="292.5" y="440" width="155" height="80" as="geometry" />
        </mxCell>
        <mxCell id="I0jLUqdHnTf_JmZDLa92-5" value="CAN ID 저장" style="rounded=0;whiteSpace=wrap;html=1;" vertex="1" parent="1">
          <mxGeometry x="310" y="340" width="120" height="60" as="geometry" />
        </mxCell>
        <mxCell id="I0jLUqdHnTf_JmZDLa92-6" value="BLE DATA 전송" style="shape=parallelogram;perimeter=parallelogramPerimeter;whiteSpace=wrap;html=1;fixedSize=1;" vertex="1" parent="1">
          <mxGeometry x="310" y="560" width="120" height="60" as="geometry" />
        </mxCell>
        <mxCell id="I0jLUqdHnTf_JmZDLa92-7" value="" style="endArrow=classic;html=1;rounded=0;entryX=0.5;entryY=0;entryDx=0;entryDy=0;" edge="1" parent="1" target="I0jLUqdHnTf_JmZDLa92-2">
          <mxGeometry width="50" height="50" relative="1" as="geometry">
            <mxPoint x="369.5" y="180" as="sourcePoint" />
            <mxPoint x="370" y="230" as="targetPoint" />
          </mxGeometry>
        </mxCell>
        <mxCell id="I0jLUqdHnTf_JmZDLa92-8" value="" style="endArrow=classic;html=1;rounded=0;entryX=0.5;entryY=0;entryDx=0;entryDy=0;" edge="1" parent="1">
          <mxGeometry width="50" height="50" relative="1" as="geometry">
            <mxPoint x="369.5" y="300" as="sourcePoint" />
            <mxPoint x="370" y="340" as="targetPoint" />
          </mxGeometry>
        </mxCell>
        <mxCell id="I0jLUqdHnTf_JmZDLa92-20" value="YES" style="edgeLabel;html=1;align=center;verticalAlign=middle;resizable=0;points=[];" vertex="1" connectable="0" parent="I0jLUqdHnTf_JmZDLa92-8">
          <mxGeometry x="-0.2479" y="3" relative="1" as="geometry">
            <mxPoint as="offset" />
          </mxGeometry>
        </mxCell>
        <mxCell id="I0jLUqdHnTf_JmZDLa92-9" value="" style="endArrow=classic;html=1;rounded=0;entryX=0.5;entryY=0;entryDx=0;entryDy=0;" edge="1" parent="1">
          <mxGeometry width="50" height="50" relative="1" as="geometry">
            <mxPoint x="369.5" y="400" as="sourcePoint" />
            <mxPoint x="370" y="440" as="targetPoint" />
          </mxGeometry>
        </mxCell>
        <mxCell id="I0jLUqdHnTf_JmZDLa92-10" value="" style="endArrow=classic;html=1;rounded=0;entryX=0.5;entryY=0;entryDx=0;entryDy=0;" edge="1" parent="1">
          <mxGeometry width="50" height="50" relative="1" as="geometry">
            <mxPoint x="369.5" y="520" as="sourcePoint" />
            <mxPoint x="370" y="560" as="targetPoint" />
          </mxGeometry>
        </mxCell>
        <mxCell id="I0jLUqdHnTf_JmZDLa92-23" value="NO" style="edgeLabel;html=1;align=center;verticalAlign=middle;resizable=0;points=[];" vertex="1" connectable="0" parent="I0jLUqdHnTf_JmZDLa92-10">
          <mxGeometry x="-0.1005" y="-1" relative="1" as="geometry">
            <mxPoint as="offset" />
          </mxGeometry>
        </mxCell>
        <mxCell id="I0jLUqdHnTf_JmZDLa92-11" value="" style="endArrow=classic;html=1;rounded=0;entryX=1;entryY=0.5;entryDx=0;entryDy=0;" edge="1" parent="1" target="I0jLUqdHnTf_JmZDLa92-13">
          <mxGeometry width="50" height="50" relative="1" as="geometry">
            <mxPoint x="446.5" y="480" as="sourcePoint" />
            <mxPoint x="450" y="260" as="targetPoint" />
            <Array as="points">
              <mxPoint x="520" y="480" />
              <mxPoint x="520" y="690" />
            </Array>
          </mxGeometry>
        </mxCell>
        <mxCell id="I0jLUqdHnTf_JmZDLa92-22" value="YES" style="edgeLabel;html=1;align=center;verticalAlign=middle;resizable=0;points=[];" vertex="1" connectable="0" parent="I0jLUqdHnTf_JmZDLa92-11">
          <mxGeometry x="-0.8367" y="-3" relative="1" as="geometry">
            <mxPoint x="1" as="offset" />
          </mxGeometry>
        </mxCell>
        <mxCell id="I0jLUqdHnTf_JmZDLa92-13" value="delay(100)" style="rounded=0;whiteSpace=wrap;html=1;" vertex="1" parent="1">
          <mxGeometry x="310" y="660" width="120" height="60" as="geometry" />
        </mxCell>
        <mxCell id="I0jLUqdHnTf_JmZDLa92-14" value="" style="endArrow=classic;html=1;rounded=0;entryX=0.5;entryY=0;entryDx=0;entryDy=0;" edge="1" parent="1">
          <mxGeometry width="50" height="50" relative="1" as="geometry">
            <mxPoint x="369.5" y="620" as="sourcePoint" />
            <mxPoint x="370" y="660" as="targetPoint" />
          </mxGeometry>
        </mxCell>
        <mxCell id="I0jLUqdHnTf_JmZDLa92-19" value="" style="endArrow=classic;html=1;rounded=0;entryX=1;entryY=0.5;entryDx=0;entryDy=0;" edge="1" parent="1" target="I0jLUqdHnTf_JmZDLa92-2">
          <mxGeometry width="50" height="50" relative="1" as="geometry">
            <mxPoint x="370" y="720" as="sourcePoint" />
            <mxPoint x="560" y="260" as="targetPoint" />
            <Array as="points">
              <mxPoint x="370" y="760" />
              <mxPoint x="560" y="760" />
              <mxPoint x="560" y="260" />
            </Array>
          </mxGeometry>
        </mxCell>
      </root>
    </mxGraphModel>
  </diagram>
</mxfile>
